<svg xmlns="http://www.w3.org/2000/svg" viewBox="0 0 1437 636"><defs><style>.cls-1,.cls-9{fill:#cdbd64;}.cls-2{fill:#3b361d;}.cls-18,.cls-3,.cls-4{fill:#fff;}.cls-4{opacity:0.3;}.cls-18,.cls-19,.cls-21,.cls-4,.cls-9{isolation:isolate;}.cls-5{fill:#910f1e;}.cls-6{fill:#7a713c;}.cls-7{fill:#fae77a;}.cls-21,.cls-8{fill:#cbbc65;}.cls-20,.cls-21,.cls-9{opacity:0.6;}.cls-10{fill:#005c60;}.cls-11{fill:#00bbbd;}.cls-12{fill:#9bb4bf;}.cls-13{fill:#717f5e;}.cls-14{fill:#006167;}.cls-15{fill:#001d23;}.cls-16{fill:#00bede;}.cls-17{fill:#009dbb;}.cls-18{opacity:0.31;}.cls-19{fill:#7b96a2;opacity:0.54;}</style></defs><g id="Layer_2" data-name="Layer 2"><g id="Layer_1-2" data-name="Layer 1"><g id="Layer_2-2" data-name="Layer 2"><g id="Layer_1-2-2" data-name="Layer 1-2"><polygon class="cls-1" points="52.6 518.42 205.75 339.02 205.75 375.01 239.55 329.94 256.52 329.94 299.93 293.42 299.93 354.34 310.82 360.22 395.24 265.98 405.28 265.98 432.71 240.15 446.85 240.15 489.42 199.17 500.02 199.17 516 174.77 525.62 168.71 513.46 325.3 646.24 162.65 669.15 162.65 729.53 89.61 748.48 89.61 748.48 119.36 762.05 168.71 789.91 132.19 801.93 132.19 836.86 65.38 851.14 65.38 867.12 25.83 879.42 25.83 898.51 0 911.24 0 939.24 0 950.13 19.42 961.3 39.55 961.3 78.03 1002.31 112.59 1043.32 225 1057.74 349.71 1057.74 518.42 52.6 518.42"/><path class="cls-2" d="M398.92,447c4.38,5.17,22.48-3,87-69.83l31.39-47.21q4.25-74.56,8.35-148.94c-16.12,30.11-39.6,74.47-67.45,129.34C400.33,423.47,394.81,442.17,398.92,447Z"/><polygon class="cls-2" points="747.63 95.84 664.34 218.95 664.34 256.18 728.26 153.57 740.42 162.65 710.16 232.67 709.03 256.18 630.54 424.18 680.04 396.74 738.01 223.4 762.05 168.71 747.63 95.84"/><polygon class="cls-2" points="933.44 1.6 945.6 22.8 937.12 86.58 956.35 132.19 929.91 211.29 956.35 157.84 981.66 200.6 978.83 314.62 990.15 404.4 1057.74 349.71 1048.13 234.09 1015.32 148.22 1002.31 112.59 969.64 76.07 962.43 61.11 963.7 33.49 933.44 1.6"/><polyline class="cls-2" points="310.82 360.22 298.8 332.25 297.52 307.13 257.65 352.74 254.11 342.05 209.43 404.4 226.25 396.74 226.25 418.12 211.83 442.35 190.05 471.21 236.01 462.12 310.82 364.14"/><polygon class="cls-2" points="299.93 307.13 297.52 307.13 297.52 335.64 300.21 335.64 299.93 307.13"/><polyline class="cls-2" points="904.45 10.69 916.61 27.61 910.53 86.22 929.91 132.37 894.84 288.61 891.16 302.5 900.63 302.5 941.93 138.78 922.55 83.2 929.91 34.03 908.13 10.69"/><polygon class="cls-2" points="873.2 27.43 891.16 49.88 882.11 102.08 891.16 127.91 853.83 275.24 865.28 275.24 902.05 127.73 894.84 101.9 902.05 56.83 873.2 27.43"/><polygon class="cls-2" points="853.83 275.24 865.99 275.24 898.65 309.81 883.95 460.7 906.86 454.46 916.61 309.81 870.8 269.19 853.83 275.24"/><polygon class="cls-2" points="782.7 355.77 802.21 386.94 808.44 466.76 821.16 466.76 812.25 376.08 782.7 355.77"/><polygon class="cls-2" points="568.32 460.7 595.47 448.23 630.54 367.88 599.43 310.16 606.36 358.8 609.05 367.88 568.32 460.7"/><polygon class="cls-2" points="798.68 133.79 813.67 148.22 806.17 186.88 813.67 202.91 775.35 363.43 785.1 353.81 821.16 212.53 815.22 188.48 818.76 165.68 817.77 151.25 798.68 133.79"/><polygon class="cls-2" points="205.61 349.71 196.42 385.34 207.02 375.01 205.61 349.71"/><polygon class="cls-2" points="407.26 262.95 409.8 272.21 337.4 401.38 340.94 401.38 409.8 281.83 413.34 275.24 407.26 262.95"/><polygon class="cls-2" points="362.71 396.74 448.41 241.75 451.94 247.81 362.71 409.21 362.71 396.74"/><polyline class="cls-2" points="990.85 372.16 1057.03 338.84 1059.15 377.86 1059.15 458.92 1040.06 458.92 1040.06 483.86 996.93 483.86 998.21 417.59"/><path class="cls-1" d="M1207.78,485.64c0-36.16.56-77.5-11.88-111.17a7.09,7.09,0,0,1-2.69-2L1159.41,414l12-156.59-9.61,6.23L1146,287.89h-10.61l-42.56,41h-14.14l-27.29,25.83h-10l-84.57,94.24,11.32,158.2h236.57a6.66,6.66,0,0,1,3-2.67C1205.09,564.92,1207.63,525.19,1207.78,485.64Z"/><polyline class="cls-1" points="1273.81 530.53 1049.12 530.53 1202.4 351.14 1202.4 387.3 1236.2 342.05 1253.03 342.05 1296.44 305.53 1296.44 366.46 1307.33 372.51"/><path class="cls-2" d="M1044.73,535.7c4.38,5.17,22.49-3,86.83-69.83L1163,418.66q4.24-74.57,8.34-148.94c-16.12,30.11-39.59,74.47-67.45,129.34C1046.29,512.18,1040.77,530.89,1044.73,535.7Z"/><polyline class="cls-2" points="1307.33 372.51 1295.31 344.37 1294.04 319.25 1254.3 364.85 1250.62 354.17 1205.94 416.52 1222.91 408.86 1222.91 430.24 1208.34 454.46 1186.71 483.5 1232.52 474.24 1307.33 376.25"/><polygon class="cls-2" points="1202.26 361.82 1192.93 397.45 1203.53 387.3 1202.26 361.82"/><polygon class="cls-2" points="1053.21 351.67 1055.62 360.93 983.22 490.09 986.75 490.09 1055.62 370.73 1059.3 363.96 1053.21 351.67"/><polygon class="cls-2" points="1008.53 485.46 1094.22 330.47 1097.9 336.53 1008.53 497.93 1008.53 485.46"/><path class="cls-3" d="M204.76,460,172,458.92V452L204.62,453Z"/><rect class="cls-4" y="441.82" width="1434.03" height="8.73"/><rect class="cls-4" y="458.03" width="1434.03" height="89.08"/><rect class="cls-5" x="31.39" y="397.28" width="76.93" height="31"/><rect class="cls-5" x="42.71" y="381.78" width="54.16" height="31"/><polygon class="cls-5" points="42.71 381.78 69.86 369.84 97.01 381.78 42.71 381.78"/><rect class="cls-6" x="42.28" y="397.28" width="76.93" height="31"/><rect class="cls-6" x="53.59" y="381.78" width="54.16" height="31"/><polygon class="cls-6" points="53.59 381.78 80.6 369.84 107.75 381.78 53.59 381.78"/><rect class="cls-6" x="112.84" y="409.75" width="134.76" height="225.9"/><rect class="cls-7" y="409.75" width="134.76" height="225.9"/><polygon class="cls-6" points="82.87 375.72 80.6 369.84 66.18 369.84 67.31 377.68 82.87 375.72"/><rect class="cls-7" x="27.72" y="397.28" width="76.93" height="31"/><rect class="cls-7" x="39.17" y="381.78" width="54.16" height="31"/><polygon class="cls-7" points="39.17 381.78 66.18 369.84 93.33 381.78 39.17 381.78"/><path class="cls-8" d="M71,385c.14-3.74-2.12-7.12-5.09-7.3s-5.66,2.67-5.8,6.41,2.12,7.13,5.09,7.31h.42C68.44,391.58,70.85,388.73,71,385Z"/><rect class="cls-1" x="7.07" y="498.82" width="12.44" height="24.05"/><rect class="cls-1" x="31.68" y="498.82" width="12.44" height="24.05"/><rect class="cls-1" x="89.23" y="498.82" width="12.44" height="24.05"/><rect class="cls-8" x="113.69" y="498.82" width="12.44" height="24.05"/><rect class="cls-1" x="7.07" y="455.53" width="12.44" height="24.05"/><rect class="cls-8" x="31.68" y="455.53" width="12.44" height="24.05"/><rect class="cls-8" x="89.23" y="455.53" width="12.44" height="24.05"/><rect class="cls-8" x="113.69" y="455.53" width="12.44" height="24.05"/><rect class="cls-6" x="280.27" y="329.76" width="111.43" height="305.89"/><rect class="cls-6" x="287.91" y="314.44" width="72.26" height="15.32"/><rect class="cls-6" x="294.7" y="299.29" width="58.54" height="15.32"/><rect class="cls-7" x="238.98" y="329.76" width="111.43" height="305.89"/><rect class="cls-7" x="258.35" y="314.44" width="72.26" height="15.32"/><rect class="cls-7" x="265.28" y="299.29" width="58.54" height="15.32"/><rect class="cls-8" x="252.42" y="351.49" width="13.01" height="282.01"/><rect class="cls-8" x="275.89" y="351.49" width="13.01" height="282.01"/><rect class="cls-8" x="299.5" y="351.49" width="13.01" height="282.01"/><rect class="cls-8" x="322.98" y="351.49" width="13.01" height="282.01"/><polygon class="cls-6" points="361.58 489.74 228.38 489.74 221.73 510.23 368.23 510.23 361.58 489.74"/><polygon class="cls-7" points="293 489.74 159.79 489.74 153.15 510.23 299.65 510.23 293 489.74"/><rect class="cls-6" x="222.44" y="509.51" width="146.78" height="126.13"/><rect class="cls-7" x="153" y="509.51" width="146.78" height="126.13"/><rect class="cls-8" x="152.86" y="509.51" width="147.07" height="43.29"/><rect class="cls-1" x="195.43" y="552.27" width="62.22" height="49.88"/><rect class="cls-9" x="298.66" y="509.51" width="25.03" height="42.76"/><rect class="cls-10" x="361.58" y="404.76" width="111.01" height="41.33"/><rect class="cls-11" x="311.67" y="404.76" width="111.01" height="41.33"/><rect class="cls-12" x="311.67" y="401.55" width="4.1" height="44.54"/><rect class="cls-12" x="421.82" y="401.55" width="4.1" height="44.54"/><rect class="cls-6" x="351.4" y="400.84" width="114.12" height="235.16"/><rect class="cls-7" x="311.67" y="400.84" width="114.12" height="235.16"/><rect class="cls-1" x="311.24" y="454.64" width="114.54" height="17.46"/><rect class="cls-13" x="483.2" y="425.6" width="114.82" height="210.04"/><rect class="cls-6" x="483.2" y="381.24" width="114.82" height="254.4"/><rect class="cls-7" x="439.22" y="381.24" width="114.82" height="254.4"/><rect class="cls-7" x="439.22" y="425.6" width="114.82" height="210.04"/><rect class="cls-6" x="457.6" y="355.77" width="12.59" height="27.97"/><rect class="cls-7" x="453.36" y="355.77" width="9.47" height="27.97"/><rect class="cls-6" x="484.04" y="355.77" width="12.59" height="27.97"/><rect class="cls-7" x="479.8" y="355.77" width="9.47" height="27.97"/><rect class="cls-1" x="448.55" y="503.28" width="10.32" height="20.49"/><rect class="cls-1" x="461.98" y="503.28" width="10.32" height="20.49"/><rect class="cls-1" x="484.89" y="503.28" width="10.32" height="20.49"/><rect class="cls-1" x="498.33" y="503.28" width="10.32" height="20.49"/><rect class="cls-1" x="521.09" y="503.28" width="10.32" height="20.49"/><rect class="cls-1" x="534.67" y="503.28" width="10.32" height="20.49"/><rect class="cls-1" x="448.55" y="467.65" width="10.32" height="20.49"/><rect class="cls-1" x="461.98" y="467.65" width="10.32" height="20.49"/><rect class="cls-1" x="484.89" y="467.65" width="10.32" height="20.49"/><rect class="cls-1" x="498.33" y="467.65" width="10.32" height="20.49"/><rect class="cls-1" x="521.09" y="467.65" width="10.32" height="20.49"/><rect class="cls-1" x="534.67" y="467.65" width="10.32" height="20.49"/><rect class="cls-1" x="448.55" y="432.19" width="10.32" height="20.67"/><rect class="cls-1" x="461.98" y="432.19" width="10.32" height="20.67"/><rect class="cls-1" x="484.89" y="432.19" width="10.32" height="20.67"/><rect class="cls-1" x="498.33" y="432.19" width="10.32" height="20.67"/><rect class="cls-1" x="521.09" y="432.19" width="10.32" height="20.67"/><rect class="cls-1" x="534.67" y="432.19" width="10.32" height="20.67"/><rect class="cls-6" x="601.27" y="393" width="192.18" height="242.64"/><rect class="cls-7" x="580.48" y="393" width="146.78" height="242.64"/><rect class="cls-1" x="593.78" y="443.6" width="14" height="21.2"/><rect class="cls-1" x="629.13" y="443.6" width="14" height="21.2"/><rect class="cls-1" x="664.62" y="443.6" width="14" height="21.2"/><rect class="cls-1" x="700.12" y="443.6" width="14" height="21.2"/><rect class="cls-1" x="593.78" y="477.27" width="14" height="21.2"/><rect class="cls-1" x="629.13" y="477.27" width="14" height="21.2"/><rect class="cls-1" x="664.62" y="477.27" width="14" height="21.2"/><rect class="cls-1" x="699.98" y="477.27" width="14" height="21.2"/><rect class="cls-7" x="800.8" y="308.56" width="36.48" height="16.57"/><rect class="cls-6" x="829.93" y="308.56" width="28.99" height="16.57"/><rect class="cls-6" x="778.03" y="297.16" width="9.62" height="27.97"/><rect class="cls-7" x="774.78" y="297.16" width="7.21" height="27.97"/><rect class="cls-6" x="808.29" y="323.7" width="105.21" height="311.94"/><rect class="cls-7" x="752.86" y="323.7" width="105.21" height="311.94"/><rect class="cls-1" x="763.61" y="345.26" width="10.32" height="20.67"/><rect class="cls-14" x="788.36" y="563.14" width="11.74" height="22.8"/><rect class="cls-15" x="787.51" y="563.14" width="11.74" height="22.8"/><rect class="cls-16" x="788.07" y="564.21" width="10.32" height="20.49"/><rect class="cls-17" x="788.21" y="578.81" width="10.32" height="6.06"/><polygon class="cls-16" points="789.06 565.27 798.54 565.27 798.54 564.21 788.22 564.21 788.22 584.87 789.06 584.87 789.06 565.27"/><polygon class="cls-18" points="795.99 564.21 791.18 584.87 788.07 584.87 788.07 564.21 795.99 564.21"/><polygon class="cls-18" points="796.84 564.21 791.89 584.87 792.74 584.87 797.55 564.21 796.84 564.21"/><rect class="cls-19" x="786.66" y="585.41" width="14.14" height="3.03"/><rect class="cls-3" x="786.23" y="585.41" width="14.14" height="1.96"/><rect class="cls-15" x="787.79" y="570.44" width="11.17" height="0.89"/><rect class="cls-14" x="812.82" y="563.14" width="11.74" height="22.8"/><rect class="cls-15" x="811.97" y="563.14" width="11.74" height="22.8"/><rect class="cls-16" x="812.54" y="564.21" width="10.32" height="20.49"/><rect class="cls-17" x="812.68" y="578.81" width="10.32" height="6.06"/><polygon class="cls-16" points="813.53 565.27 823 565.27 823 564.21 812.68 564.21 812.68 584.87 813.53 584.87 813.53 565.27"/><polygon class="cls-18" points="820.46 564.21 815.65 584.87 812.54 584.87 812.54 564.21 820.46 564.21"/><polygon class="cls-18" points="821.3 564.21 816.36 584.87 817.2 584.87 822.01 564.21 821.3 564.21"/><rect class="cls-19" x="811.26" y="585.41" width="14.14" height="3.03"/><rect class="cls-3" x="810.7" y="585.41" width="14.14" height="1.96"/><rect class="cls-15" x="812.25" y="570.44" width="11.17" height="0.89"/><rect class="cls-14" x="837.28" y="563.14" width="11.74" height="22.8"/><rect class="cls-15" x="836.44" y="563.14" width="11.74" height="22.8"/><rect class="cls-16" x="837" y="564.21" width="10.32" height="20.49"/><rect class="cls-17" x="837.14" y="578.81" width="10.32" height="6.06"/><polygon class="cls-16" points="837.99 565.27 847.47 565.27 847.47 564.21 837.14 564.21 837.14 584.87 837.99 584.87 837.99 565.27"/><polygon class="cls-18" points="844.92 564.21 840.11 584.87 837 584.87 837 564.21 844.92 564.21"/><polygon class="cls-18" points="845.77 564.21 840.82 584.87 841.67 584.87 846.48 564.21 845.77 564.21"/><rect class="cls-19" x="835.73" y="585.41" width="14.14" height="3.03"/><rect class="cls-3" x="835.16" y="585.41" width="14.14" height="1.96"/><rect class="cls-15" x="836.72" y="570.44" width="11.17" height="0.89"/><rect class="cls-14" x="763.89" y="598.77" width="11.74" height="22.8"/><rect class="cls-15" x="763.04" y="598.77" width="11.74" height="22.8"/><rect class="cls-16" x="763.61" y="599.84" width="10.32" height="20.49"/><rect class="cls-17" x="763.75" y="614.44" width="10.32" height="6.06"/><polygon class="cls-16" points="764.6 601.08 773.93 601.08 773.93 600.01 763.75 600.01 763.75 620.5 764.6 620.5 764.6 601.08"/><polygon class="cls-18" points="771.53 600.01 766.72 620.5 763.61 620.5 763.61 600.01 771.53 600.01"/><polygon class="cls-18" points="772.38 600.01 767.43 620.5 768.28 620.5 773.08 600.01 772.38 600.01"/><rect class="cls-19" x="762.2" y="621.21" width="14.14" height="3.03"/><rect class="cls-3" x="761.77" y="621.21" width="14.14" height="1.96"/><rect class="cls-15" x="763.33" y="606.07" width="11.17" height="0.89"/><rect class="cls-14" x="788.36" y="598.77" width="11.74" height="22.8"/><rect class="cls-15" x="787.51" y="598.77" width="11.74" height="22.8"/><rect class="cls-16" x="788.07" y="599.84" width="10.32" height="20.49"/><rect class="cls-17" x="788.21" y="614.44" width="10.32" height="6.06"/><polygon class="cls-16" points="789.06 601.08 798.54 601.08 798.54 600.01 788.22 600.01 788.22 620.5 789.06 620.5 789.06 601.08"/><polygon class="cls-18" points="795.99 600.01 791.18 620.5 788.07 620.5 788.07 600.01 795.99 600.01"/><polygon class="cls-18" points="796.84 600.01 791.89 620.5 792.74 620.5 797.55 600.01 796.84 600.01"/><rect class="cls-19" x="786.66" y="621.21" width="14.14" height="3.03"/><rect class="cls-3" x="786.23" y="621.21" width="14.14" height="1.96"/><rect class="cls-15" x="787.79" y="606.07" width="11.17" height="0.89"/><rect class="cls-14" x="812.82" y="598.77" width="11.74" height="22.8"/><rect class="cls-15" x="811.97" y="598.77" width="11.74" height="22.8"/><rect class="cls-16" x="812.54" y="599.84" width="10.32" height="20.49"/><rect class="cls-17" x="812.68" y="614.44" width="10.32" height="6.06"/><polygon class="cls-16" points="813.53 601.08 823 601.08 823 600.01 812.68 600.01 812.68 620.5 813.53 620.5 813.53 601.08"/><polygon class="cls-18" points="820.46 600.01 815.65 620.5 812.54 620.5 812.54 600.01 820.46 600.01"/><polygon class="cls-18" points="821.3 600.01 816.36 620.5 817.2 620.5 822.01 600.01 821.3 600.01"/><rect class="cls-19" x="811.26" y="621.21" width="14.14" height="3.03"/><rect class="cls-3" x="810.7" y="621.21" width="14.14" height="1.96"/><rect class="cls-15" x="812.25" y="606.07" width="11.17" height="0.89"/><rect class="cls-14" x="837.28" y="598.77" width="11.74" height="22.8"/><rect class="cls-15" x="836.44" y="598.77" width="11.74" height="22.8"/><rect class="cls-16" x="837" y="599.84" width="10.32" height="20.49"/><rect class="cls-17" x="837.14" y="614.44" width="10.32" height="6.06"/><polygon class="cls-16" points="837.99 601.08 847.47 601.08 847.47 600.01 837.14 600.01 837.14 620.5 837.99 620.5 837.99 601.08"/><polygon class="cls-18" points="844.92 600.01 840.11 620.5 837 620.5 837 600.01 844.92 600.01"/><polygon class="cls-18" points="845.77 600.01 840.82 620.5 841.67 620.5 846.48 600.01 845.77 600.01"/><rect class="cls-19" x="835.73" y="621.21" width="14.14" height="3.03"/><rect class="cls-3" x="835.16" y="621.21" width="14.14" height="1.96"/><rect class="cls-15" x="836.72" y="606.07" width="11.17" height="0.89"/><rect class="cls-6" x="788.64" y="547.64" width="79.9" height="88.01"/><rect class="cls-7" x="783.27" y="547.64" width="56.14" height="88.01"/><rect class="cls-6" x="772.52" y="572.22" width="79.9" height="63.42"/><rect class="cls-7" x="746.36" y="572.22" width="79.9" height="63.42"/><rect class="cls-1" x="763.19" y="585.76" width="45.39" height="49.88"/><rect class="cls-6" x="890.03" y="455" width="105.07" height="180.65"/><rect class="cls-7" x="862.03" y="451.61" width="105.07" height="184.03"/><polygon class="cls-6" points="989.86 430.41 872.5 430.41 865.14 455 995.24 455 989.86 430.41"/><rect class="cls-1" x="874.19" y="485.46" width="11.03" height="10.69"/><rect class="cls-6" x="1060.43" y="403.69" width="40.58" height="18.17"/><rect class="cls-7" x="1046.71" y="403.69" width="30.54" height="18.17"/><rect class="cls-6" x="1041.62" y="421.86" width="99.27" height="214.14"/><rect class="cls-7" x="991.99" y="421.86" width="99.27" height="214.14"/><polygon class="cls-6" points="1297.71 501.85 1297.71 439.32 1258.4 439.32 1256 503.45 1297.71 501.85"/><rect class="cls-13" x="1148.38" y="423.82" width="8.77" height="27.97"/><rect class="cls-7" x="1145.41" y="423.82" width="6.65" height="27.97"/><rect class="cls-13" x="1167.47" y="412.6" width="7.35" height="39.19"/><rect class="cls-7" x="1164.93" y="412.6" width="5.51" height="39.19"/><polygon class="cls-7" points="1261.79 477.8 1113.17 477.8 1122.08 439.32 1270.7 439.32 1261.79 477.8"/><rect class="cls-6" x="1151.35" y="477.45" width="146.22" height="158.2"/><rect class="cls-7" x="1116" y="477.45" width="146.22" height="158.2"/><rect class="cls-6" x="1327.13" y="381.24" width="109.87" height="254.4"/><rect class="cls-7" x="1285.13" y="381.24" width="109.87" height="254.4"/><polygon class="cls-6" points="1327.13 381.24 1437 381.24 1429.65 352.56 1338.3 352.56 1327.13 381.24"/><polygon class="cls-7" points="1285.13 381.24 1395 381.24 1388.64 352.56 1297.43 352.56 1285.13 381.24"/><rect class="cls-1" x="1293.89" y="414.74" width="9.9" height="19.6"/><rect class="cls-1" x="763.19" y="380.35" width="10.32" height="20.67"/><rect class="cls-1" x="763.19" y="561.35" width="10.32" height="10.51"/><rect class="cls-1" x="763.19" y="417.76" width="10.32" height="20.67"/><rect class="cls-1" x="763.19" y="452.15" width="10.32" height="20.67"/><rect class="cls-1" x="763.19" y="488.85" width="10.32" height="20.49"/><rect class="cls-1" x="763.19" y="525.72" width="10.32" height="20.49"/><rect class="cls-1" x="789.49" y="345.44" width="10.32" height="20.67"/><rect class="cls-1" x="789.06" y="380.53" width="10.32" height="20.67"/><rect class="cls-1" x="789.06" y="417.94" width="10.32" height="20.67"/><rect class="cls-1" x="789.06" y="452.33" width="10.32" height="20.49"/><rect class="cls-1" x="789.06" y="489.03" width="10.32" height="20.49"/><rect class="cls-1" x="789.06" y="525.9" width="10.32" height="20.49"/><rect class="cls-1" x="813.53" y="345.44" width="10.32" height="20.67"/><rect class="cls-1" x="813.1" y="380.53" width="10.32" height="20.67"/><rect class="cls-1" x="813.1" y="417.94" width="10.32" height="20.67"/><rect class="cls-1" x="813.1" y="452.33" width="10.32" height="20.49"/><rect class="cls-1" x="813.1" y="489.03" width="10.32" height="20.49"/><rect class="cls-1" x="813.1" y="525.9" width="10.32" height="20.49"/><rect class="cls-1" x="1320.05" y="415.27" width="9.9" height="19.6"/><rect class="cls-1" x="1348.76" y="415.98" width="9.9" height="19.6"/><rect class="cls-1" x="1375.63" y="415.98" width="9.9" height="19.6"/><g class="cls-20"><rect class="cls-1" x="1403.91" y="415.98" width="9.9" height="19.6"/></g><rect class="cls-1" x="1293.75" y="470.14" width="9.9" height="19.6"/><rect class="cls-1" x="1319.91" y="470.68" width="9.9" height="19.6"/><rect class="cls-1" x="1348.62" y="471.39" width="9.9" height="19.6"/><rect class="cls-1" x="1375.49" y="471.39" width="9.9" height="19.6"/><g class="cls-20"><rect class="cls-1" x="1403.77" y="471.39" width="9.9" height="19.6"/></g><rect class="cls-1" x="1293.75" y="526.44" width="9.9" height="19.6"/><rect class="cls-1" x="1319.91" y="526.97" width="9.9" height="19.6"/><rect class="cls-1" x="1348.62" y="527.68" width="9.9" height="19.6"/><rect class="cls-1" x="1375.49" y="527.68" width="9.9" height="19.6"/><g class="cls-20"><rect class="cls-1" x="1403.77" y="527.33" width="9.19" height="19.95"/></g><rect class="cls-1" x="840.68" y="345.26" width="10.32" height="20.67"/><rect class="cls-1" x="840.11" y="380.35" width="10.32" height="20.67"/><rect class="cls-1" x="840.11" y="417.76" width="10.32" height="20.67"/><rect class="cls-1" x="840.11" y="452.33" width="10.32" height="20.49"/><rect class="cls-1" x="840.11" y="488.85" width="10.32" height="20.49"/><rect class="cls-1" x="840.11" y="525.72" width="10.32" height="20.49"/><rect class="cls-1" x="896.25" y="484.93" width="11.03" height="10.69"/><rect class="cls-1" x="921.99" y="485.11" width="11.03" height="10.69"/><rect class="cls-1" x="945.6" y="484.75" width="11.03" height="10.69"/><rect class="cls-1" x="873.63" y="518.24" width="11.03" height="10.69"/><rect class="cls-1" x="895.69" y="517.71" width="11.03" height="10.69"/><rect class="cls-1" x="921.42" y="517.89" width="11.03" height="10.69"/><rect class="cls-1" x="944.9" y="517.53" width="11.03" height="10.69"/><rect class="cls-1" x="873.63" y="548.53" width="11.03" height="10.69"/><rect class="cls-1" x="895.69" y="547.99" width="11.03" height="10.69"/><rect class="cls-1" x="921.42" y="548.17" width="11.03" height="10.69"/><rect class="cls-1" x="944.9" y="547.82" width="11.03" height="10.69"/><rect class="cls-1" x="873.63" y="580.59" width="11.03" height="10.69"/><rect class="cls-1" x="895.69" y="580.06" width="11.03" height="10.69"/><rect class="cls-1" x="921.42" y="580.24" width="11.03" height="10.69"/><rect class="cls-1" x="944.9" y="579.88" width="11.03" height="10.69"/><rect class="cls-1" x="991.99" y="546.57" width="99.83" height="15.68"/><rect class="cls-1" x="992.27" y="578.64" width="99.83" height="15.68"/><rect class="cls-1" x="992.27" y="514.5" width="99.83" height="15.68"/><rect class="cls-1" x="992.27" y="478.87" width="99.83" height="15.68"/><rect class="cls-9" x="1091.25" y="478.87" width="24.75" height="15.68"/><rect class="cls-9" x="1091.96" y="514.5" width="23.9" height="15.68"/><rect class="cls-9" x="1090.97" y="546.57" width="25.03" height="15.68"/><rect class="cls-9" x="1091.4" y="579.17" width="24.46" height="15.68"/><rect class="cls-1" x="1293.61" y="575.07" width="9.9" height="19.6"/><rect class="cls-1" x="1319.91" y="575.61" width="9.9" height="19.6"/><rect class="cls-1" x="1348.48" y="576.32" width="9.9" height="19.6"/><rect class="cls-1" x="1375.35" y="576.32" width="9.9" height="19.6"/><g class="cls-20"><rect class="cls-1" x="1403.63" y="575.96" width="9.19" height="19.95"/></g><rect class="cls-1" x="59.82" y="497.04" width="12.44" height="24.05"/><rect class="cls-8" x="59.82" y="453.93" width="12.44" height="24.05"/><rect class="cls-1" x="6.5" y="583.45" width="12.44" height="24.05"/><rect class="cls-1" x="31.11" y="583.45" width="12.44" height="24.05"/><rect class="cls-1" x="88.52" y="583.45" width="12.44" height="24.05"/><rect class="cls-8" x="113.13" y="583.45" width="12.44" height="24.05"/><rect class="cls-1" x="6.5" y="540.15" width="12.44" height="24.05"/><rect class="cls-8" x="31.11" y="540.15" width="12.44" height="24.05"/><rect class="cls-8" x="88.52" y="540.15" width="12.44" height="24.05"/><rect class="cls-8" x="113.13" y="540.15" width="12.44" height="24.05"/><rect class="cls-1" x="59.25" y="581.66" width="12.44" height="24.05"/><rect class="cls-8" x="59.25" y="538.55" width="12.44" height="24.05"/><rect class="cls-1" x="311.38" y="492.05" width="114.54" height="17.46"/><rect class="cls-1" x="311.24" y="531.78" width="114.54" height="16.92"/><rect class="cls-1" x="311.24" y="567.41" width="114.54" height="16.92"/><rect class="cls-9" x="425.92" y="454.82" width="13.43" height="17.46"/><rect class="cls-9" x="425.5" y="491.34" width="13.43" height="17.46"/><rect class="cls-9" x="425.64" y="568.12" width="13.43" height="17.46"/><rect class="cls-9" x="425.64" y="532.49" width="13.43" height="17.46"/><rect class="cls-1" x="593.78" y="513.97" width="14" height="21.2"/><rect class="cls-1" x="629.13" y="513.97" width="14" height="21.2"/><rect class="cls-1" x="664.62" y="513.97" width="14" height="21.2"/><rect class="cls-1" x="699.98" y="513.97" width="14" height="21.2"/><rect class="cls-1" x="593.78" y="550.84" width="14" height="21.2"/><rect class="cls-1" x="629.13" y="550.84" width="14" height="21.2"/><rect class="cls-1" x="664.62" y="550.84" width="14" height="21.2"/><rect class="cls-1" x="700.12" y="550.84" width="14" height="21.2"/><rect class="cls-1" x="448.69" y="538.73" width="10.32" height="20.49"/><rect class="cls-1" x="462.13" y="538.73" width="10.32" height="20.49"/><rect class="cls-1" x="484.89" y="538.73" width="10.32" height="20.49"/><rect class="cls-1" x="498.47" y="538.73" width="10.32" height="20.49"/><rect class="cls-1" x="521.23" y="538.73" width="10.32" height="20.49"/><rect class="cls-1" x="534.67" y="538.73" width="10.32" height="20.49"/><rect class="cls-1" x="448.69" y="576.14" width="10.32" height="20.49"/><rect class="cls-1" x="462.13" y="576.14" width="10.32" height="20.49"/><rect class="cls-1" x="484.89" y="576.14" width="10.32" height="20.49"/><rect class="cls-1" x="498.47" y="576.14" width="10.32" height="20.49"/><rect class="cls-1" x="521.23" y="576.14" width="10.32" height="20.49"/><rect class="cls-1" x="534.67" y="576.14" width="10.32" height="20.49"/><rect class="cls-21" x="170.12" y="455.35" width="12.44" height="24.05"/><rect class="cls-21" x="194.72" y="455.35" width="12.44" height="24.05"/><rect class="cls-21" x="145.09" y="455.35" width="12.44" height="24.05"/><rect class="cls-21" x="220.03" y="454.46" width="12.44" height="24.05"/><g class="cls-20"><rect class="cls-1" x="563.37" y="501.67" width="10.32" height="20.49"/></g><g class="cls-20"><rect class="cls-1" x="563.37" y="466.04" width="10.32" height="20.49"/></g><g class="cls-20"><rect class="cls-1" x="563.37" y="430.59" width="10.32" height="20.67"/></g><g class="cls-20"><rect class="cls-1" x="563.52" y="537.13" width="10.32" height="20.49"/></g><g class="cls-20"><rect class="cls-1" x="563.52" y="574.54" width="10.32" height="20.49"/></g><rect class="cls-9" x="870.37" y="344.54" width="10.32" height="20.67"/><rect class="cls-9" x="869.81" y="379.46" width="10.32" height="20.67"/><rect class="cls-9" x="893" y="344.54" width="10.32" height="20.67"/><rect class="cls-9" x="892.43" y="379.46" width="10.32" height="20.67"/><rect class="cls-9" x="870.09" y="417.23" width="10.32" height="13.9"/><rect class="cls-9" x="892.72" y="417.23" width="10.32" height="13.9"/><polygon class="cls-7" points="959.32 430.41 867.4 430.41 858.64 455 967.1 455 959.32 430.41"/><rect class="cls-9" x="974.03" y="484.57" width="11.03" height="10.69"/><rect class="cls-9" x="973.46" y="517.35" width="11.03" height="10.69"/><rect class="cls-9" x="973.46" y="547.64" width="11.03" height="10.69"/><rect class="cls-9" x="973.46" y="579.7" width="11.03" height="10.69"/><rect class="cls-1" x="1127.74" y="496.86" width="11.03" height="10.69"/><rect class="cls-1" x="1149.8" y="496.33" width="11.03" height="10.69"/><rect class="cls-1" x="1172.71" y="496.69" width="11.03" height="10.69"/><rect class="cls-1" x="1196.18" y="496.15" width="11.03" height="10.69"/><rect class="cls-1" x="1219.09" y="495.97" width="11.03" height="10.69"/><rect class="cls-1" x="1241.29" y="496.51" width="11.03" height="10.69"/><rect class="cls-1" x="1126.47" y="521.81" width="11.03" height="10.69"/><rect class="cls-1" x="1148.67" y="521.27" width="11.03" height="10.69"/><rect class="cls-1" x="1171.57" y="521.63" width="11.03" height="10.69"/><rect class="cls-1" x="1195.05" y="521.09" width="11.03" height="10.69"/><rect class="cls-1" x="1217.82" y="520.91" width="11.03" height="10.69"/><rect class="cls-1" x="1240.16" y="521.45" width="11.03" height="10.69"/><rect class="cls-1" x="1126.47" y="548.53" width="11.03" height="10.69"/><rect class="cls-1" x="1148.67" y="547.99" width="11.03" height="10.69"/><rect class="cls-1" x="1171.57" y="548.35" width="11.03" height="10.69"/><rect class="cls-1" x="1195.05" y="547.82" width="11.03" height="10.69"/><rect class="cls-1" x="1217.82" y="547.64" width="11.03" height="10.69"/><rect class="cls-1" x="1240.16" y="548.17" width="11.03" height="10.69"/><rect class="cls-1" x="1126.47" y="575.25" width="11.03" height="10.69"/><rect class="cls-1" x="1148.67" y="574.72" width="11.03" height="10.69"/><rect class="cls-1" x="1171.57" y="575.07" width="11.03" height="10.69"/><rect class="cls-1" x="1195.05" y="574.54" width="11.03" height="10.69"/><rect class="cls-1" x="1217.82" y="574.36" width="11.03" height="10.69"/><rect class="cls-1" x="1240.16" y="574.89" width="11.03" height="10.69"/><rect class="cls-9" x="1268.72" y="496.51" width="11.03" height="10.69"/><rect class="cls-9" x="1267.59" y="521.45" width="11.03" height="10.69"/><rect class="cls-9" x="1267.59" y="548.17" width="11.03" height="10.69"/><rect class="cls-9" x="1267.59" y="574.89" width="11.03" height="10.69"/></g></g></g></g></svg>