<svg xmlns="http://www.w3.org/2000/svg" width="20" height="18" viewBox="0 0 20 18">
    <path fill="#959292" fill-rule="evenodd" d="M3.75 17.5a.624.624 0 0 1-.505-.993c.01-.015.978-1.367 1.114-2.99C1.544 12.003 0 9.878 0 7.5 0 3.364 4.486 0 10 0s10 3.364 10 7.5S15.514 15 10 15c-.435 0-1.11.004-1.519.008-1.507 2.31-4.565 2.485-4.701 2.491l-.03.001zM10 1.25c-4.825 0-8.75 2.804-8.75 6.25 0 2.672 2.524 4.334 4.03 5.086a.624.624 0 0 1 .345.558c0 1.113-.336 2.128-.675 2.87.882-.261 2.018-.805 2.626-1.927a.624.624 0 0 1 .544-.327s1.216-.01 1.88-.01c4.825 0 8.75-2.804 8.75-6.25S14.825 1.25 10 1.25z"/>
</svg>
