<svg width="26" height="26" viewBox="0 0 26 26" fill="none" xmlns="http://www.w3.org/2000/svg">
<path d="M17.332 22.75V20.5833C17.332 19.4341 16.8755 18.3319 16.0628 17.5192C15.2502 16.7065 14.148 16.25 12.9987 16.25H5.41536C4.26609 16.25 3.16389 16.7065 2.35124 17.5192C1.53858 18.3319 1.08203 19.4341 1.08203 20.5833V22.75" stroke="#5FC19F" stroke-width="2" stroke-linecap="round" stroke-linejoin="round"/>
<path d="M9.20833 11.9167C11.6016 11.9167 13.5417 9.97657 13.5417 7.58333C13.5417 5.1901 11.6016 3.25 9.20833 3.25C6.8151 3.25 4.875 5.1901 4.875 7.58333C4.875 9.97657 6.8151 11.9167 9.20833 11.9167Z" stroke="#5FC19F" stroke-width="2" stroke-linecap="round" stroke-linejoin="round"/>
<path d="M21.668 8.66699V15.167" stroke="#5FC19F" stroke-width="2" stroke-linecap="round" stroke-linejoin="round"/>
<path d="M24.918 11.917H18.418" stroke="#5FC19F" stroke-width="2" stroke-linecap="round" stroke-linejoin="round"/>
</svg>
